<svg width="24" height="24" viewBox="0 0 24 24" fill="none" xmlns="http://www.w3.org/2000/svg">
<rect width="24" height="24" fill="white"/>
<path fill-rule="evenodd" clip-rule="evenodd" d="M5.3079 10.6245C5.3079 7.04537 7.63112 3.5 11.7285 3.5C12.9211 3.5 13.9437 3.77268 14.7985 4.2297C15.1638 4.42499 15.6182 4.28718 15.8135 3.9219C16.0088 3.55661 15.871 3.10217 15.5057 2.90688C14.4238 2.32844 13.1568 2 11.7285 2C6.52898 2 3.8079 6.52015 3.8079 10.6245V14.7536L2.1217 17.3404C1.97141 17.571 1.95947 17.8653 2.09058 18.1073C2.22169 18.3493 2.47479 18.5 2.75 18.5H8.07501C8.42247 20.2117 9.93578 21.5 11.75 21.5C13.5642 21.5 15.0775 20.2117 15.425 18.5H20.75C21.02 18.5 21.2692 18.3549 21.4024 18.12C21.5356 17.8851 21.5323 17.5968 21.3937 17.365L19.691 14.5182V10.3734C19.691 9.92867 19.6594 9.48467 19.5968 9.04616C19.5382 8.63611 19.1583 8.35118 18.7482 8.40975C18.3382 8.46832 18.0533 8.84821 18.1118 9.25826C18.1644 9.62652 18.191 9.99965 18.191 10.3734V14.7254C18.191 14.8609 18.2278 14.994 18.2973 15.1103L19.4275 17L4.13415 17L5.18621 15.386C5.26562 15.2642 5.3079 15.1219 5.3079 14.9765V10.6245ZM13.872 18.5L9.62803 18.5C9.93691 19.3739 10.7703 20 11.75 20C12.7297 20 13.5631 19.3739 13.872 18.5Z" fill="#222222"/>
<circle cx="20.5" cy="3.5" r="2.5" fill="#FF3DAC"/>
</svg>
