<svg width="20" height="20" viewBox="0 0 20 20" fill="none" xmlns="http://www.w3.org/2000/svg">
<path fill-rule="evenodd" clip-rule="evenodd" d="M4.54858 8.85373C4.54858 5.91487 6.45144 3.04163 9.77411 3.04163C10.7434 3.04163 11.5718 3.26201 12.2632 3.62944L12.3936 3.70468C13.8241 4.5301 14.7258 6.02508 14.9698 7.73285C15.0128 8.03388 15.0345 8.33892 15.0345 8.64447V12.2711C15.0345 12.4067 15.0712 12.5397 15.1408 12.6561L15.9695 14.0416L3.67614 14.0416L4.42688 12.8899C4.5063 12.7681 4.54858 12.6258 4.54858 12.4803V8.85373ZM9.77411 1.54163C5.34929 1.54163 3.04858 5.38965 3.04858 8.85373V12.2575L1.66369 14.3821C1.51341 14.6126 1.50146 14.907 1.63257 15.1489C1.76368 15.3909 2.01679 15.5416 2.29199 15.5416L6.62896 15.5416C6.96754 16.975 8.2552 18.0416 9.79199 18.0416C11.3288 18.0416 12.6164 16.975 12.955 15.5416L17.292 15.5416C17.562 15.5416 17.8112 15.3965 17.9444 15.1616C18.0776 14.9267 18.0743 14.6384 17.9357 14.4067L16.5345 12.0639V8.64447C16.5345 8.26794 16.5077 7.89203 16.4547 7.52075C16.1564 5.43217 15.0343 3.49659 13.1432 2.40545L13.0019 2.32391C12.9949 2.31987 12.9878 2.31594 12.9807 2.31212C12.0601 1.81997 10.984 1.54163 9.77411 1.54163ZM11.3736 15.5416H8.2104C8.49127 16.1329 9.09389 16.5416 9.79199 16.5416C10.4901 16.5416 11.0927 16.1329 11.3736 15.5416Z" fill="#9A9A9A"/>
</svg>
