<svg width="17" height="20" viewBox="0 0 17 20" fill="none" xmlns="http://www.w3.org/2000/svg">
<path d="M12.1133 4.77881C12.2923 4.77881 12.5975 4.80729 13.0288 4.86426C13.4601 4.92122 13.9321 5.08398 14.4448 5.35254C14.9657 5.61296 15.4377 6.04834 15.8608 6.65869C15.8364 6.68311 15.7184 6.77262 15.5068 6.92725C15.2952 7.07373 15.0592 7.29346 14.7988 7.58643C14.5384 7.87126 14.3105 8.23747 14.1152 8.68506C13.9199 9.12451 13.8223 9.64941 13.8223 10.2598C13.8223 10.9596 13.9443 11.5537 14.1885 12.042C14.4408 12.5303 14.7297 12.925 15.0552 13.2261C15.3888 13.519 15.6818 13.7347 15.9341 13.873C16.1945 14.0114 16.3328 14.0846 16.3491 14.0928C16.341 14.1253 16.2352 14.4142 16.0317 14.9595C15.8364 15.5047 15.5109 16.111 15.0552 16.7783C14.6564 17.3561 14.2251 17.8892 13.7612 18.3774C13.3055 18.8657 12.7562 19.1099 12.1133 19.1099C11.682 19.1099 11.328 19.0488 11.0513 18.9268C10.7746 18.7965 10.4897 18.6704 10.1968 18.5483C9.90381 18.4181 9.50911 18.353 9.0127 18.353C8.53255 18.353 8.12972 18.4181 7.8042 18.5483C7.48682 18.6785 7.18164 18.8088 6.88867 18.939C6.60384 19.0692 6.26611 19.1343 5.87549 19.1343C5.28141 19.1343 4.76058 18.8983 4.31299 18.4263C3.8654 17.9543 3.4056 17.3887 2.93359 16.7295C2.38835 15.9482 1.92041 14.9961 1.52979 13.873C1.1473 12.7419 0.956055 11.6025 0.956055 10.4551C0.956055 9.22624 1.18799 8.19678 1.65186 7.3667C2.11572 6.52848 2.7098 5.89779 3.43408 5.47461C4.1665 5.04329 4.92334 4.82764 5.70459 4.82764C6.11963 4.82764 6.51025 4.89681 6.87646 5.03516C7.24268 5.16536 7.58447 5.29964 7.90186 5.43799C8.22738 5.57633 8.52035 5.64551 8.78076 5.64551C9.03304 5.64551 9.32601 5.57227 9.65967 5.42578C9.99333 5.2793 10.3677 5.13688 10.7827 4.99854C11.1978 4.85205 11.6413 4.77881 12.1133 4.77881ZM11.4419 3.22852C11.1245 3.611 10.7257 3.93245 10.2456 4.19287C9.76546 4.44515 9.30973 4.57129 8.87842 4.57129C8.7889 4.57129 8.70345 4.56315 8.62207 4.54688C8.61393 4.52246 8.60579 4.4777 8.59766 4.4126C8.58952 4.34749 8.58545 4.27832 8.58545 4.20508C8.58545 3.7168 8.69124 3.24479 8.90283 2.78906C9.11442 2.3252 9.35449 1.94271 9.62305 1.6416C9.96484 1.2347 10.3962 0.896973 10.917 0.628418C11.4378 0.359863 11.9342 0.217448 12.4062 0.201172C12.4307 0.306966 12.4429 0.433105 12.4429 0.57959C12.4429 1.06787 12.3493 1.54395 12.1621 2.00781C11.9749 2.46354 11.7349 2.87044 11.4419 3.22852Z" fill="white"/>
</svg>
