<svg width="16" height="14" viewBox="0 0 16 14" fill="none" xmlns="http://www.w3.org/2000/svg">
<path fill-rule="evenodd" clip-rule="evenodd" d="M6.2224 13.8571H9.7776C12.2744 13.8571 13.5232 13.8571 14.42 13.2971C14.807 13.0556 15.1402 12.7439 15.4008 12.3798C16 11.5417 16 10.3737 16 8.03922C16 5.70399 16 4.53675 15.4008 3.69866C15.1402 3.33455 14.807 3.02285 14.42 2.78133C13.844 2.42095 13.1224 2.29219 12.0176 2.24647C11.4904 2.24647 11.0368 1.87314 10.9336 1.38933C10.8547 1.03495 10.6498 0.71736 10.3535 0.490248C10.0571 0.263136 9.68756 0.140426 9.3072 0.142858H6.6928C5.9024 0.142858 5.2216 0.664761 5.0664 1.38933C4.9632 1.87314 4.5096 2.24647 3.9824 2.24647C2.8784 2.29219 2.1568 2.42171 1.58 2.78133C1.1933 3.0229 0.860299 3.3346 0.6 3.69866C0 4.53675 0 5.70399 0 8.03922C0 10.3737 4.76837e-08 11.5409 0.5992 12.3798C0.8584 12.7424 1.1912 13.0541 1.58 13.2971C2.4768 13.8571 3.7256 13.8571 6.2224 13.8571ZM8 4.92227C6.1592 4.92227 4.6664 6.31732 4.6664 8.03846C4.6664 9.76036 6.1592 11.1554 8 11.1554C9.8408 11.1554 11.3336 9.76036 11.3336 8.03922C11.3336 6.31732 9.8408 4.92227 8 4.92227ZM8 6.16875C6.896 6.16875 6 7.00608 6 8.03922C6 9.0716 6.896 9.90893 8 9.90893C9.104 9.90893 10 9.0716 10 8.03922C10 7.00608 9.104 6.16875 8 6.16875ZM11.7776 5.54551C11.7776 5.20113 12.076 4.92227 12.4448 4.92227H13.3328C13.7008 4.92227 14 5.20113 14 5.54551C13.9983 5.71229 13.9272 5.87161 13.8022 5.98847C13.6773 6.10533 13.5087 6.17017 13.3336 6.16875H12.4448C12.358 6.16955 12.2719 6.15407 12.1914 6.12318C12.1109 6.0923 12.0376 6.04661 11.9757 5.98874C11.9137 5.93086 11.8643 5.86194 11.8303 5.78589C11.7964 5.70984 11.7784 5.62816 11.7776 5.54551Z" fill="currentColor"/>
</svg>
