<svg width="25" height="24" viewBox="0 0 25 24" fill="none" xmlns="http://www.w3.org/2000/svg">
<path fill-rule="evenodd" clip-rule="evenodd" d="M11.563 3.10921C12.1108 2.67095 12.8892 2.67095 13.437 3.10921L21.437 9.50921C21.7929 9.79387 22 10.2248 22 10.6805V19.9999C22 20.8283 21.3284 21.4999 20.5 21.4999H4.5C3.67157 21.4999 3 20.8283 3 19.9999V10.6805C3 10.2248 3.20713 9.79387 3.56296 9.50921L11.563 3.10921ZM12.5 17C14.1569 17 15.5 15.6569 15.5 14C15.5 12.3431 14.1569 11 12.5 11C10.8431 11 9.5 12.3431 9.5 14C9.5 15.6569 10.8431 17 12.5 17Z" fill="currentColor"/>
</svg>
