<svg width="25" height="24" viewBox="0 0 25 24" fill="none" xmlns="http://www.w3.org/2000/svg">
<path fill-rule="evenodd" clip-rule="evenodd" d="M12.9685 3.69487C12.6946 3.47573 12.3054 3.47574 12.0315 3.69487L11.563 3.10921L12.0315 3.69487L4.03148 10.0949C3.85357 10.2372 3.75 10.4527 3.75 10.6805V19.9999C3.75 20.4141 4.08579 20.7499 4.5 20.7499H20.5C20.9142 20.7499 21.25 20.4141 21.25 19.9999V10.6805C21.25 10.4527 21.1464 10.2372 20.9685 10.0949L12.9685 3.69487ZM11.0944 2.52356C11.9162 1.86617 13.0838 1.86617 13.9056 2.52356L21.9056 8.92356C22.4393 9.35055 22.75 9.99701 22.75 10.6805V19.9999C22.75 21.2425 21.7426 22.2499 20.5 22.2499H4.5C3.25736 22.2499 2.25 21.2425 2.25 19.9999V10.6805C2.25 9.99701 2.5607 9.35055 3.09444 8.92356L11.0944 2.52356ZM12.5 11.75C11.2574 11.75 10.25 12.7574 10.25 14C10.25 15.2426 11.2574 16.25 12.5 16.25C13.7426 16.25 14.75 15.2426 14.75 14C14.75 12.7574 13.7426 11.75 12.5 11.75ZM8.75 14C8.75 11.9289 10.4289 10.25 12.5 10.25C14.5711 10.25 16.25 11.9289 16.25 14C16.25 16.0711 14.5711 17.75 12.5 17.75C10.4289 17.75 8.75 16.0711 8.75 14Z" fill="#A1A1A1"/>
</svg>
