<svg width="25" height="24" viewBox="0 0 25 24" fill="none" xmlns="http://www.w3.org/2000/svg">
<path d="M12.5 22C12.5 22 20.5 16.4903 20.5 9.9903C20.5 5.8483 16.9181 2 12.5 2C8.08187 2 4.5 5.8483 4.5 9.9903C4.5 16.4903 12.5 22 12.5 22Z" stroke="currentColor" stroke-width="1.5" stroke-linejoin="round"/>
<path d="M12.5002 13C12.8942 13 13.2843 12.9224 13.6482 12.7717C14.0121 12.6209 14.3428 12.3999 14.6214 12.1214C14.8999 11.8428 15.1209 11.5121 15.2717 11.1482C15.4224 10.7843 15.5 10.3942 15.5 10.0002C15.5 9.60631 15.4224 9.21623 15.2717 8.85229C15.1209 8.48834 14.8999 8.15765 14.6214 7.8791C14.3428 7.60054 14.0121 7.37958 13.6482 7.22883C13.2843 7.07808 12.8942 7.00049 12.5002 7.00049C11.7047 7.00049 10.9417 7.31653 10.3791 7.8791C9.81653 8.44166 9.50049 9.20466 9.50049 10.0002C9.50049 10.7958 9.81653 11.5588 10.3791 12.1214C10.9417 12.684 11.7047 13 12.5002 13Z" stroke="currentColor" stroke-width="1.5" stroke-linejoin="round"/>
</svg>
