<svg width="14" height="14" viewBox="0 0 14 14" fill="none" xmlns="http://www.w3.org/2000/svg">
<path d="M7.00004 1.16663C8.23772 1.16663 9.4247 1.6725 10.2999 2.57295C11.175 3.47341 11.6667 4.69468 11.6667 5.96812C11.6667 7.99706 10.2811 10.2082 7.54568 12.6252C7.39358 12.7596 7.19966 12.8335 6.99915 12.8333C6.79863 12.8331 6.60483 12.7589 6.45296 12.6242L6.27204 12.4627C3.65775 10.1087 2.33337 7.95175 2.33337 5.96812C2.33337 4.69468 2.82504 3.47341 3.70021 2.57295C4.57538 1.6725 5.76236 1.16663 7.00004 1.16663ZM7.00004 4.12139C6.52401 4.12139 6.06748 4.31596 5.73087 4.66229C5.39427 5.00861 5.20517 5.47834 5.20517 5.96812C5.20517 6.4579 5.39427 6.92762 5.73087 7.27395C6.06748 7.62028 6.52401 7.81485 7.00004 7.81485C7.47607 7.81485 7.9326 7.62028 8.26921 7.27395C8.60581 6.92762 8.79491 6.4579 8.79491 5.96812C8.79491 5.47834 8.60581 5.00861 8.26921 4.66229C7.9326 4.31596 7.47607 4.12139 7.00004 4.12139Z" fill="currentColor"/>
</svg>
