<svg width="25" height="24" viewBox="0 0 25 24" fill="none" xmlns="http://www.w3.org/2000/svg">
<circle cx="12.5" cy="12" r="11" fill="#E8E8E8"/>
<mask id="mask0_445_1004" style="mask-type:alpha" maskUnits="userSpaceOnUse" x="1" y="1" width="23" height="22">
<circle cx="12.5" cy="12" r="11" fill="#B9B9B9"/>
</mask>
<g mask="url(#mask0_445_1004)">
<path d="M21.4195 23.9129H3.58029C3.34679 23.9157 3.11555 23.8695 2.9034 23.7776C2.69124 23.6857 2.5035 23.5504 2.35384 23.3815C2.02443 23.0105 1.89164 22.504 1.98996 21.9917C2.4177 19.7564 3.7526 17.8787 5.85074 16.5606C7.71474 15.3904 10.0759 14.7463 12.4999 14.7463C14.9239 14.7463 17.2851 15.3909 19.1491 16.5606C21.2472 17.8782 22.5821 19.7559 23.0099 21.9912C23.1082 22.5035 22.9754 23.0101 22.646 23.381C22.4964 23.55 22.3087 23.6854 22.0965 23.7774C21.8843 23.8694 21.6531 23.9157 21.4195 23.9129Z" fill="#A1A1A1"/>
</g>
<circle cx="12.4999" cy="9.125" r="4.125" fill="#A1A1A1"/>
</svg>
