<svg width="23" height="22" viewBox="0 0 23 22" fill="none" xmlns="http://www.w3.org/2000/svg">
<circle cx="11.5" cy="11" r="10.25" fill="currentColor" stroke="currentColor" stroke-width="1.5"/>
<mask id="mask0_1686_1371" style="mask-type:alpha" maskUnits="userSpaceOnUse" x="0" y="0" width="23" height="22">
<circle cx="11.5" cy="11" r="11" fill="#B9B9B9"/>
</mask>
<g mask="url(#mask0_1686_1371)">
<path d="M19.1728 22.9128H3.82786C3.62701 22.9154 3.4281 22.8732 3.24561 22.7894C3.06312 22.7056 2.90163 22.5823 2.7729 22.4283C2.48954 22.0901 2.37532 21.6282 2.45989 21.1611C2.82782 19.1231 3.97608 17.411 5.78085 16.2092C7.38422 15.1423 9.41525 14.5551 11.5003 14.5551C13.5854 14.5551 15.6164 15.1427 17.2198 16.2092C19.0246 17.4106 20.1728 19.1226 20.5408 21.1607C20.6253 21.6278 20.5111 22.0896 20.2278 22.4278C20.0991 22.5819 19.9376 22.7054 19.7551 22.7892C19.5726 22.8731 19.3737 22.9153 19.1728 22.9128Z" fill="white"/>
</g>
<circle cx="11.5" cy="7.5" r="3.5" fill="white"/>
</svg>
