<svg width="14" height="14" viewBox="0 0 14 14" fill="none" xmlns="http://www.w3.org/2000/svg">
<path d="M8.84237 2.74587C8.37459 2.26488 7.72125 2 7.00011 2C6.27513 2 5.61962 2.26328 5.15401 2.7413C4.68335 3.22458 4.45403 3.8814 4.50787 4.59064C4.6146 5.9899 5.7326 6.76187 7.00011 6.76187C8.26762 6.76187 9.3837 5.99013 9.49211 4.5911C9.54668 3.88827 9.31591 3.23282 8.84237 2.74587ZM11.2307 11.9999H2.76935C2.6586 12.0013 2.54892 11.9792 2.44829 11.9351C2.34766 11.891 2.25862 11.8261 2.18763 11.7451C2.03139 11.5673 1.96841 11.3243 2.01504 11.0787C2.21792 10.0068 2.85108 9.10641 3.84624 8.47432C4.73035 7.9132 5.85027 7.60436 7 7.60436C8.14973 7.60436 9.26965 7.91343 10.1538 8.47432C11.1489 9.10618 11.7821 10.0066 11.985 11.0785C12.0316 11.3241 11.9686 11.567 11.8124 11.7449C11.7414 11.8259 11.6524 11.8909 11.5517 11.935C11.4511 11.9791 11.3414 12.0013 11.2307 11.9999Z" fill="currentColor"/>
</svg>
