<svg width="16" height="17" viewBox="0 0 16 17" fill="none" xmlns="http://www.w3.org/2000/svg">
<rect width="16" height="16" transform="translate(0 0.5)" fill="white"/>
<path d="M13.0768 14.9999H2.92322C2.79032 15.0015 2.6587 14.9751 2.53795 14.9225C2.41719 14.8699 2.31034 14.7924 2.22516 14.6958C2.03766 14.4835 1.96209 14.1935 2.01805 13.9003C2.2615 12.621 3.02129 11.5462 4.21549 10.7918C5.27642 10.122 6.62033 9.75342 8 9.75342C9.37967 9.75342 10.7236 10.1223 11.7845 10.7918C12.9787 11.546 13.7385 12.6207 13.982 13.9001C14.0379 14.1933 13.9623 14.4832 13.7748 14.6955C13.6897 14.7922 13.5828 14.8697 13.4621 14.9224C13.3413 14.975 13.2097 15.0015 13.0768 14.9999Z" stroke="currentColor" stroke-width="1.5"/>
<circle cx="8" cy="5.25" r="2.25" stroke="currentColor" stroke-width="1.5"/>
</svg>
