<svg width="24" height="24" viewBox="0 0 24 24" fill="none" xmlns="http://www.w3.org/2000/svg">
<path d="M12 2H14.1653C14.2498 2 14.3251 2.05305 14.3536 2.13256L15.2258 4.56751C15.2413 4.61074 15.2712 4.64733 15.3105 4.67113L16.6079 5.45712C16.6511 5.48327 16.7026 5.49213 16.752 5.48193L19.6467 4.88435C19.731 4.86696 19.8169 4.90541 19.8601 4.97983L21.9286 8.54372C21.9714 8.61734 21.9628 8.70992 21.9074 8.77448L19.8361 11.1846C19.805 11.2209 19.7878 11.2671 19.7878 11.3149V12.548C19.7878 12.5984 19.8068 12.6469 19.841 12.6839L21.9032 14.9114C21.9611 14.9739 21.973 15.0664 21.9328 15.1416L19.8618 19.0141C19.8184 19.0953 19.725 19.1364 19.6358 19.1135L16.8124 18.3895C16.762 18.3766 16.7086 18.3838 16.6634 18.4097L15.1214 19.2924C15.0758 19.3186 15.0423 19.3616 15.0282 19.4123L14.3471 21.8537C14.323 21.9402 14.2442 22 14.1544 22H12" stroke="currentColor" stroke-width="1.5"/>
<path d="M12 2H9.83467C9.75021 2 9.67486 2.05305 9.64638 2.13256L8.77419 4.56751C8.75871 4.61074 8.72881 4.64733 8.68953 4.67113L7.39207 5.45712C7.3489 5.48327 7.29744 5.49213 7.24801 5.48193L4.35328 4.88435C4.26901 4.86696 4.18306 4.90541 4.13987 4.97983L2.07136 8.54372C2.02863 8.61734 2.03718 8.70992 2.09265 8.77448L4.16387 11.1846C4.19504 11.2209 4.21219 11.2671 4.21219 11.3149V12.548C4.21219 12.5984 4.19317 12.6469 4.15895 12.6839L2.09679 14.9114C2.03886 14.9739 2.02698 15.0664 2.06719 15.1416L4.13817 19.0141C4.18162 19.0953 4.27496 19.1364 4.36422 19.1135L7.18757 18.3895C7.23798 18.3766 7.29145 18.3838 7.33661 18.4097L8.87857 19.2924C8.9242 19.3186 8.95771 19.3616 8.97184 19.4123L9.65291 21.8537C9.67703 21.9402 9.7558 22 9.84556 22H12" stroke="currentColor" stroke-width="1.5"/>
<circle cx="12" cy="12" r="3.5" stroke="currentColor" stroke-width="1.5"/>
</svg>
