<svg width="14" height="14" viewBox="0 0 14 14" fill="none" xmlns="http://www.w3.org/2000/svg">
<path d="M6.46196 1.59019C6.68205 1.14424 7.31795 1.14424 7.53804 1.59019L8.7707 4.08783C8.8581 4.26492 9.02704 4.38766 9.22246 4.41605L11.9788 4.81657C12.4709 4.88808 12.6674 5.49286 12.3113 5.83999L10.3168 7.78413C10.1754 7.92197 10.1109 8.12057 10.1443 8.3152L10.6151 11.0604C10.6992 11.5505 10.1847 11.9243 9.74452 11.6929L7.2792 10.3968C7.10441 10.3049 6.89559 10.3049 6.7208 10.3968L4.25548 11.6929C3.8153 11.9243 3.30084 11.5505 3.38491 11.0604L3.85574 8.3152C3.88913 8.12057 3.8246 7.92197 3.68319 7.78413L1.6887 5.83998C1.33259 5.49286 1.5291 4.88808 2.02123 4.81657L4.77754 4.41605C4.97296 4.38766 5.1419 4.26492 5.2293 4.08783L6.46196 1.59019Z" fill="currentColor"/>
</svg>
