<svg width="16" height="17" viewBox="0 0 16 17" fill="none" xmlns="http://www.w3.org/2000/svg">
<rect width="16" height="16" transform="translate(0 0.5)" fill="white"/>
<path d="M8.81605 13.493L11.1857 7.70694C11.2599 7.52575 11.516 7.52448 11.592 7.70492L14.0292 13.491C14.0903 13.636 13.9838 13.7964 13.8264 13.7964H9.01964C8.86322 13.7964 8.75677 13.6378 8.81605 13.493Z" stroke="currentColor" stroke-width="1.5"/>
<path d="M1.96644 13.493L5.97964 3.69376C6.05385 3.51257 6.30998 3.5113 6.38598 3.69173L10.5136 13.491C10.5746 13.636 10.4682 13.7964 10.3108 13.7964H2.17003C2.01361 13.7964 1.90716 13.6378 1.96644 13.493Z" fill="white" stroke="currentColor" stroke-width="1.5"/>
<path d="M4.24219 7.7644L6.26367 9.3644L8.00467 7.7644" stroke="currentColor" stroke-width="1.5"/>
</svg>
