<svg width="12" height="12" viewBox="0 0 12 12" fill="none" xmlns="http://www.w3.org/2000/svg">
<path d="M7.10806 5.47144C7.03123 5.54827 6.92702 5.59144 6.81836 5.59144C6.7097 5.59144 6.60549 5.54827 6.52866 5.47144C6.45182 5.3946 6.40866 5.29039 6.40866 5.18173C6.40866 5.07307 6.45182 4.96886 6.52866 4.89203L9.80215 1.61853C9.84019 1.58049 9.88536 1.55031 9.93507 1.52972C9.98477 1.50913 10.0381 1.49854 10.0919 1.49854C10.1457 1.49854 10.1989 1.50913 10.2486 1.52972C10.2983 1.55031 10.3435 1.58049 10.3816 1.61853C10.4196 1.65658 10.4498 1.70174 10.4704 1.75145C10.491 1.80116 10.5016 1.85444 10.5016 1.90824C10.5016 1.96204 10.491 2.01532 10.4704 2.06503C10.4498 2.11473 10.4196 2.1599 10.3816 2.19794L7.10806 5.47144ZM2.19782 10.3817C2.15978 10.4197 2.11461 10.4499 2.0649 10.4705C2.0152 10.4911 1.96192 10.5017 1.90812 10.5017C1.85431 10.5017 1.80104 10.4911 1.75133 10.4705C1.70162 10.4499 1.65646 10.4197 1.61841 10.3817C1.58037 10.3436 1.55019 10.2985 1.5296 10.2488C1.50901 10.1991 1.49841 10.1458 1.49841 10.092C1.49841 10.0382 1.50901 9.9849 1.5296 9.93519C1.55019 9.88548 1.58037 9.84032 1.61841 9.80227L4.89191 6.52878C4.96874 6.45194 5.07295 6.40878 5.18161 6.40878C5.29027 6.40878 5.39448 6.45194 5.47132 6.52878C5.54815 6.60561 5.59132 6.70982 5.59132 6.81848C5.59132 6.92714 5.54815 7.03135 5.47132 7.10819L2.19782 10.3817Z" fill="white"/>
<path d="M1.90809 10.501C1.79957 10.501 1.69549 10.4579 1.61875 10.3811C1.54201 10.3044 1.4989 10.2003 1.4989 10.0918C1.4989 9.98328 1.54201 9.8792 1.61875 9.80246C1.69549 9.72573 1.79957 9.68262 1.90809 9.68262H5.18158C5.29011 9.68262 5.39418 9.72573 5.47092 9.80246C5.54766 9.8792 5.59077 9.98328 5.59077 10.0918C5.59077 10.2003 5.54766 10.3044 5.47092 10.3811C5.39418 10.4579 5.29011 10.501 5.18158 10.501H1.90809Z" fill="white"/>
<path d="M2.3174 10.0919C2.3174 10.2005 2.27429 10.3045 2.19755 10.3813C2.12081 10.458 2.01673 10.5011 1.90821 10.5011C1.79969 10.5011 1.69561 10.458 1.61887 10.3813C1.54213 10.3045 1.49902 10.2005 1.49902 10.0919V6.81845C1.49902 6.70993 1.54213 6.60585 1.61887 6.52911C1.69561 6.45238 1.79969 6.40927 1.90821 6.40927C2.01673 6.40927 2.12081 6.45238 2.19755 6.52911C2.27429 6.60585 2.3174 6.70993 2.3174 6.81845V10.0919ZM10.5011 5.1817C10.5011 5.29023 10.458 5.39431 10.3813 5.47104C10.3045 5.54778 10.2005 5.59089 10.0919 5.59089C9.98342 5.59089 9.87934 5.54778 9.80261 5.47104C9.72587 5.39431 9.68276 5.29023 9.68276 5.1817V1.90821C9.68276 1.79969 9.72587 1.69561 9.80261 1.61887C9.87934 1.54213 9.98342 1.49902 10.0919 1.49902C10.2005 1.49902 10.3045 1.54213 10.3813 1.61887C10.458 1.69561 10.5011 1.79969 10.5011 1.90821V5.1817Z" fill="white"/>
<path d="M6.81837 2.3174C6.70984 2.3174 6.60576 2.27429 6.52903 2.19755C6.45229 2.12081 6.40918 2.01673 6.40918 1.90821C6.40918 1.79969 6.45229 1.69561 6.52903 1.61887C6.60576 1.54213 6.70984 1.49902 6.81837 1.49902H10.0919C10.2004 1.49902 10.3045 1.54213 10.3812 1.61887C10.4579 1.69561 10.501 1.79969 10.501 1.90821C10.501 2.01673 10.4579 2.12081 10.3812 2.19755C10.3045 2.27429 10.2004 2.3174 10.0919 2.3174H6.81837Z" fill="white"/>
</svg>
